<svg width="45" height="45" viewBox="0 0 45 45" fill="none" xmlns="http://www.w3.org/2000/svg">
<path d="M45 35.3571C45 36.8263 43.8091 38.0173 42.34 38.0173H2.66001C1.19092 38.0174 0 36.8263 0 35.3571V9.6435C0 8.1744 1.19092 6.9834 2.66001 6.9834H42.34C43.8092 6.9834 45 8.1744 45 9.6435V35.3571Z" fill="#306FC5"/>
<path opacity="0.15" d="M1.89114 35.3571V9.6435C1.89114 8.1744 3.08224 6.9834 4.55133 6.9834H2.65992C1.19092 6.9834 0 8.17432 0 9.6435V35.3572C0 36.8264 1.19092 38.0174 2.66001 38.0174H4.55142C3.08232 38.0174 1.89114 36.8263 1.89114 35.3571Z" fill="#202121"/>
<path d="M6.55615 19.4017H7.9007L7.2286 17.6904L6.55615 19.4017Z" fill="white"/>
<path d="M13.7065 25.1465V25.9411H15.9679V26.7969H13.7065V27.7139H16.2122L17.3733 26.4301L16.2734 25.1465H13.7065Z" fill="white"/>
<path d="M31.3682 17.6904L30.6348 19.4017H32.0406L31.3682 17.6904Z" fill="white"/>
<path d="M20.2458 28.2022V24.7188L18.6567 26.4301L20.2458 28.2022Z" fill="white"/>
<path d="M23.24 25.6968C23.1788 25.3301 22.9341 25.1465 22.5673 25.1465H21.2842V26.2465H22.6288C22.9954 26.2466 23.24 26.0634 23.24 25.6968Z" fill="white"/>
<path d="M27.5178 26.1248C27.64 26.0635 27.7014 25.88 27.7014 25.697C27.7626 25.4528 27.64 25.3304 27.5178 25.2692C27.3959 25.208 27.2123 25.208 27.0292 25.208H25.8066V26.186H27.0291C27.2122 26.186 27.3958 26.186 27.5178 26.1248Z" fill="white"/>
<path d="M36.3181 16.1016V16.8349L35.9517 16.1016H33.0796V16.8349L32.7127 16.1016H28.8014C28.1292 16.1016 27.5789 16.2239 27.0903 16.4683V16.1016H24.3403V16.1627V16.4683C24.0347 16.224 23.6681 16.1016 23.1791 16.1016H13.3398L12.6672 17.6295L11.9951 16.1016H9.79515H8.87836V16.8349L8.57276 16.1016H8.51159H5.88375L4.66128 18.9738L3.25582 22.0906L3.22998 22.1519H3.25582H6.37269H6.41171L6.43386 22.0906L6.80071 21.1741H7.59516L7.96184 22.1519H11.5061V22.0906V21.4185L11.8119 22.1518H13.584L13.8894 21.4185V22.0906V22.1519H15.2951H22.3233H22.3844V20.5628H22.5069C22.629 20.5628 22.629 20.5628 22.629 20.7462V22.0907H27.0293V21.724C27.3959 21.9076 27.9456 22.0907 28.6791 22.0907H30.5127L30.8794 21.1131H31.7348L32.1014 22.0907H35.6459V21.4797V21.1742L36.1962 22.0907H36.3181H36.3794H39.0684V16.1016H36.3183H36.3181ZM15.6009 21.2353H14.9896H14.623V20.8689V17.874L14.5618 18.0142V18.0125L13.1401 21.2353H13.0951H12.7682H12.2394L10.7728 17.874V21.2353H8.69502L8.26726 20.3186H6.18917L5.76132 21.2353H4.68703L6.49494 16.9573H8.02266L9.7338 21.0518V16.9573H10.1004H11.3529L11.3817 17.0185H11.3839L12.1549 18.6967L12.7086 19.9541L12.7282 19.8907L13.9504 16.9574H15.6008V21.2353H15.6009ZM19.8178 17.874H17.4343V18.6684H19.7567V19.5239H17.4343V20.3798H19.8178V21.2963H16.3955V16.9574H19.8178V17.874ZM24.1768 19.4498C24.1784 19.4513 24.1804 19.4522 24.1823 19.4535C24.2054 19.478 24.2252 19.5025 24.2421 19.526C24.3591 19.6794 24.4538 19.9077 24.4586 20.2424C24.4589 20.2482 24.4592 20.2539 24.4595 20.2597C24.4595 20.263 24.4601 20.2659 24.4601 20.2693C24.4601 20.2713 24.46 20.2728 24.46 20.2746C24.4614 20.3083 24.4622 20.3426 24.4622 20.3798V21.2354H23.5457V20.7463C23.5457 20.5019 23.5457 20.1351 23.3621 19.8907C23.3044 19.833 23.2459 19.7949 23.1823 19.7678C23.0907 19.7085 22.9171 19.7075 22.629 19.7075H21.5286V21.2354H20.4899V16.9574H22.8125C23.3621 16.9574 23.729 16.9574 24.0347 17.1407C24.3341 17.3205 24.515 17.6187 24.5218 18.091C24.5077 18.7414 24.0902 19.0982 23.7901 19.2185C23.7901 19.2185 23.994 19.2596 24.1768 19.4498ZM26.2347 21.2353H25.1957V16.9573H26.2347V21.2353ZM38.152 21.2353H36.8073L34.8517 17.9961V20.6851L34.8453 20.6788V21.238H33.8128V21.2354H32.7738L32.4071 20.3187H30.268L29.9013 21.2963H28.7401C28.2516 21.2963 27.64 21.1743 27.2735 20.8076C26.9068 20.4409 26.7237 19.952 26.7237 19.1576C26.7237 18.5465 26.8458 17.935 27.2735 17.4462C27.5788 17.0793 28.1291 16.9574 28.8012 16.9574H29.7793V17.874H28.8012C28.4345 17.874 28.2516 17.9349 28.0066 18.1186C27.8236 18.3018 27.7013 18.6684 27.7013 19.0962C27.7013 19.5852 27.7625 19.8907 28.0066 20.1351C28.1904 20.3187 28.4346 20.3799 28.7401 20.3799H29.1679L30.5734 17.0187H31.1848H32.1013L33.8128 21.1133V20.9044V19.5241V19.402V17.0188H35.3405L37.1124 20.0132V17.0188H38.1518V21.2355H38.152V21.2353Z" fill="white"/>
<path d="M23.3051 18.7391C23.323 18.7201 23.3391 18.6984 23.3528 18.6737C23.4082 18.586 23.4717 18.4282 23.4375 18.2128C23.4361 18.193 23.4325 18.1747 23.4283 18.157C23.4271 18.1521 23.4273 18.1478 23.426 18.1429L23.4254 18.143C23.3949 18.0383 23.3173 17.974 23.2399 17.9349C23.1174 17.874 22.934 17.874 22.7508 17.874H21.5283V18.852H22.7508C22.934 18.852 23.1175 18.852 23.2399 18.7907C23.2583 18.7814 23.2746 18.7687 23.2904 18.7544L23.2905 18.7552C23.2905 18.7552 23.2969 18.7486 23.3051 18.7391Z" fill="white"/>
<path d="M41.7572 27.347C41.7572 26.9192 41.6351 26.4913 41.4519 26.1857V23.4357H41.4491V23.2521C41.4491 23.2521 38.8875 23.2521 38.5062 23.2521C38.1251 23.2521 37.6627 23.6187 37.6627 23.6187V23.2521H34.8516C34.4235 23.2521 33.8739 23.3745 33.6291 23.6187V23.2521H28.6179V23.4357V23.6186C28.2515 23.3133 27.5787 23.252 27.2734 23.252H23.9732V23.4356V23.6185C23.6677 23.3132 22.934 23.252 22.5671 23.252H18.9008L18.045 24.1687L17.2505 23.252H16.9947H16.5783H11.7505V23.4356V23.9183V29.4248H17.1285L18.0122 28.5409L18.7781 29.4248H18.8395H21.9383H22.0788H22.14H22.2008V28.8137V28.0192H22.5065C22.934 28.0192 23.4842 28.0192 23.912 27.8356V29.3633V29.4859H26.6622V29.3633V27.8968H26.7841C26.9677 27.8968 26.9677 27.8968 26.9677 28.0801V29.3633V29.4859H35.2789C35.8294 29.4859 36.379 29.3633 36.6845 29.1189V29.3633V29.4859H39.3126C39.8623 29.4859 40.4128 29.4248 40.7794 29.1802C41.3421 28.8426 41.6968 28.245 41.7495 27.5323C41.752 27.5112 41.755 27.4901 41.757 27.4689L41.7534 27.4655C41.7556 27.426 41.7572 27.3869 41.7572 27.347ZM22.5066 26.9804H21.2841V27.1633V27.5301V27.8969V28.5692H19.2753L18.1062 27.2245L18.1022 27.229L18.045 27.1633L16.7006 28.5692H12.7894V24.2913H16.7617L17.847 25.48L18.0752 25.7289L18.1061 25.6968L19.3897 24.2913H22.6286C23.2572 24.2913 23.9611 24.4465 24.2279 25.0861C24.26 25.2127 24.2786 25.3535 24.2786 25.5135C24.2786 26.7357 23.423 26.9804 22.5066 26.9804ZM28.6179 26.9191C28.74 27.102 28.8012 27.3469 28.8012 27.7137V28.5691H27.7624V28.0192C27.7624 27.7744 27.7624 27.3469 27.5788 27.1633C27.4569 26.9804 27.2121 26.9804 26.8457 26.9804H25.7458V28.5692H24.7069V24.2301H27.029C27.5176 24.2301 27.9454 24.2301 28.2515 24.4133C28.5568 24.5968 28.8012 24.9024 28.8012 25.3913C28.8012 26.0634 28.3736 26.4301 28.0679 26.5525C28.3736 26.6742 28.5568 26.7968 28.6179 26.9191ZM32.8349 25.1464H30.4512V25.941H32.7736V26.7968H30.4512V27.6525H32.8349V28.5691H29.4125V24.23H32.8349V25.1464ZM35.4015 28.5692H33.4458V27.6525H35.4015C35.5845 27.6525 35.707 27.6525 35.8295 27.5302C35.8907 27.4689 35.9514 27.347 35.9514 27.2246C35.9514 27.1021 35.8907 26.9804 35.8295 26.9192C35.7682 26.8581 35.6458 26.7969 35.4625 26.7969C34.4846 26.7358 33.3235 26.7969 33.3235 25.4526C33.3235 24.8414 33.6902 24.169 34.7903 24.169H36.807V25.2078H34.9126C34.7293 25.2078 34.6069 25.2078 34.4845 25.269C34.3626 25.3302 34.3626 25.4526 34.3626 25.5746C34.3626 25.7581 34.4845 25.8192 34.6068 25.8799C34.7293 25.9411 34.8514 25.9411 34.9735 25.9411H35.5236C36.0737 25.9411 36.4403 26.0634 36.6847 26.3079C36.8681 26.4913 36.9904 26.7969 36.9904 27.2246C36.9904 28.141 36.4404 28.5692 35.4015 28.5692ZM40.6573 28.141C40.4131 28.3858 39.9851 28.5692 39.3737 28.5692H37.4185V27.6525H39.3736C39.5571 27.6525 39.6796 27.6525 39.8017 27.5302C39.8626 27.4689 39.9239 27.347 39.9239 27.2246C39.9239 27.1021 39.8626 26.9804 39.8017 26.9192C39.7405 26.8581 39.6184 26.7969 39.435 26.7969C38.4575 26.7358 37.296 26.7969 37.296 25.4526C37.296 24.8718 37.6283 24.3471 38.4479 24.1912C38.5459 24.1777 38.6494 24.169 38.7628 24.169H40.7797V25.2078H39.435H38.9462H38.885C38.7016 25.2078 38.5795 25.2078 38.4575 25.269C38.3959 25.3302 38.3348 25.4526 38.3348 25.5746C38.3348 25.7581 38.3959 25.8192 38.5795 25.8799C38.7016 25.9411 38.8239 25.9411 38.9462 25.9411H39.007H39.4961C39.7632 25.9411 39.9651 25.9741 40.15 26.0391C40.3192 26.1003 40.8796 26.351 41.005 27.0053C41.0159 27.0739 41.0239 27.1454 41.0239 27.2246C41.0239 27.5914 40.9016 27.8969 40.6573 28.141Z" fill="white"/>
</svg>
