<svg width="104" height="104" viewBox="0 0 104 104" fill="none" xmlns="http://www.w3.org/2000/svg">
<circle cx="52" cy="52" r="52" fill="#EA1E61" fill-opacity="0.29"/>
<circle cx="53" cy="51" r="44" fill="#EA1E61"/>
<path d="M46.5278 31C44.2957 31 42.4443 32.5215 41.9142 34.5773C41.8545 34.5773 41.8097 34.5625 41.75 34.5625C39.1148 34.5625 36.9722 36.6926 36.9722 39.3125C36.9722 39.6687 37.017 40.0176 37.0991 40.3516C34.9193 41.2422 33.3889 43.3648 33.3889 45.8438C33.3889 46.7789 33.6278 47.6473 34.0085 48.434C32.2168 49.4582 31 51.3582 31 53.5625C31 56.034 32.5229 58.1566 34.6878 59.0473C34.6207 59.3887 34.5833 59.7375 34.5833 60.0938C34.5833 63.0477 36.9872 65.4375 39.9583 65.4375C40.2644 65.4375 40.563 65.4004 40.8542 65.3484C41.5708 67.4637 43.5566 69 45.9306 69C48.9017 69 51.3056 66.6102 51.3056 63.6562V35.75C51.3056 33.1301 49.163 31 46.5278 31ZM74 53.5625C74 51.3582 72.7832 49.4582 70.9915 48.434C71.3797 47.6473 71.6111 46.7789 71.6111 45.8438C71.6111 43.3648 70.0807 41.2422 67.9009 40.3516C67.9755 40.0176 68.0278 39.6687 68.0278 39.3125C68.0278 36.6926 65.8852 34.5625 63.25 34.5625C63.1903 34.5625 63.138 34.5773 63.0858 34.5773C62.5557 32.5215 60.7043 31 58.4722 31C55.837 31 53.6944 33.1227 53.6944 35.75V63.6562C53.6944 66.6102 56.0983 69 59.0694 69C61.4434 69 63.4292 67.4637 64.1458 65.3484C64.437 65.4004 64.7356 65.4375 65.0417 65.4375C68.0128 65.4375 70.4167 63.0477 70.4167 60.0938C70.4167 59.7375 70.3793 59.3887 70.3121 59.0473C72.4771 58.1566 74 56.034 74 53.5625Z" fill="white"/>
</svg>
