<svg width="104" height="104" viewBox="0 0 104 104" fill="none" xmlns="http://www.w3.org/2000/svg">
<circle cx="52" cy="52" r="52" fill="#7A5548" fill-opacity="0.38"/>
<circle cx="53" cy="51" r="44" fill="#7A5548"/>
<g clip-path="url(#clip0_2075_1169)">
<path d="M45.3745 54.7714C42.1617 54.978 39.2461 56.2016 37.5917 60.561C37.4035 61.0583 36.9511 61.3602 36.4233 61.3602C35.5337 61.3602 32.783 59.1444 31.999 58.6095C31.9998 65.2039 35.0372 71 42.2498 71C48.3246 71 52.4998 67.495 52.4998 61.3754C52.4998 61.1264 52.4478 60.8885 52.4221 60.6443L45.3745 54.7714ZM68.6668 30C67.4528 30 66.3149 30.5373 65.4469 31.3173C49.0781 45.9396 47.3748 46.2831 47.3748 50.5873C47.3748 51.6844 47.6351 52.7302 48.0739 53.6863L53.1845 57.9449C53.7619 58.089 54.3568 58.1875 54.9774 58.1875C59.9511 58.1875 62.8339 54.5463 71.8867 37.6507C72.4777 36.5015 72.9998 35.2603 72.9998 33.9679C72.9998 31.6528 70.9178 30 68.6668 30Z" fill="white"/>
</g>
<defs>
<clipPath id="clip0_2075_1169">
<rect width="41" height="41" fill="white" transform="translate(32 30)"/>
</clipPath>
</defs>
</svg>
