<svg width="104" height="104" viewBox="0 0 104 104" fill="none" xmlns="http://www.w3.org/2000/svg">
<circle cx="52" cy="52" r="52" fill="#00BCD3" fill-opacity="0.28"/>
<circle cx="53" cy="51" r="44" fill="#00BCD3"/>
<path d="M50.0835 29.917L50.0816 35.7858C46.704 36.2128 43.5644 37.7512 41.1573 40.1587C38.7501 42.5662 37.2122 45.706 36.7857 49.0837H30.9168V52.917L36.7857 52.9189C37.2126 56.2962 38.7507 59.4356 41.1578 61.8427C43.5649 64.2498 46.7043 65.7879 50.0816 66.2148L50.0835 72.0837H53.9168V66.2148C57.2945 65.7883 60.4343 64.2504 62.8418 61.8432C65.2493 59.4361 66.7876 56.2965 67.2147 52.9189L73.0835 52.917V49.0837H67.2147C66.788 45.7057 65.2498 42.5657 62.8423 40.1582C60.4348 37.7507 57.2948 36.2124 53.9168 35.7858V29.917H50.0835ZM52.0002 47.167C53.0168 47.167 53.9918 47.5709 54.7107 48.2898C55.4296 49.0086 55.8335 49.9837 55.8335 51.0003C55.8335 52.017 55.4296 52.992 54.7107 53.7109C53.9918 54.4298 53.0168 54.8337 52.0002 54.8337C50.9835 54.8337 50.0085 54.4298 49.2896 53.7109C48.5707 52.992 48.1668 52.017 48.1668 51.0003C48.1668 49.9837 48.5707 49.0086 49.2896 48.2898C50.0085 47.5709 50.9835 47.167 52.0002 47.167Z" fill="white"/>
</svg>
