<svg width="104" height="104" viewBox="0 0 104 104" fill="none" xmlns="http://www.w3.org/2000/svg">
<circle cx="52" cy="52" r="52" fill="#4AAF57" fill-opacity="0.27"/>
<circle cx="53" cy="51" r="44" fill="#4AAF57"/>
<path d="M73.5682 30.7975C73.1112 29.7723 71.8055 29.7313 71.2588 30.6991C68.729 35.12 64.1999 37.8759 59.0262 37.8759H52.4978C43.8476 37.8759 36.8296 44.9296 36.8296 53.6238C36.8296 54.1979 36.8949 54.7474 36.952 55.3052C42.1584 51.5569 49.6742 48.3745 60.3318 48.3745C61.05 48.3745 61.6375 48.965 61.6375 49.6868C61.6375 50.4086 61.05 50.9991 60.3318 50.9991C39.8164 50.9991 31.1173 63.6384 29.1914 68.3874C28.6528 69.7243 29.2893 71.2499 30.6195 71.7995C31.9578 72.3572 33.4756 71.7092 34.0306 70.3805C34.153 70.0852 35.7361 66.4517 39.898 62.9495C42.542 66.5502 47.5688 69.9868 54.1707 69.2814C66.9827 68.3464 76 56.798 76 42.6577C76 38.5402 75.1187 34.2752 73.5682 30.7975Z" fill="white"/>
</svg>
