<svg width="45" height="45" viewBox="0 0 45 45" fill="none" xmlns="http://www.w3.org/2000/svg">
<path d="M2.47656 12.4497C2.8928 11.49 3.46184 10.6143 4.06821 9.76574C7.27917 5.26675 11.5784 2.25002 16.9812 0.79215C20.4798 -0.152653 24.0254 -0.236696 27.5862 0.456657C31.5791 1.23405 35.0673 2.99149 38.0861 5.6612C38.2845 5.83675 38.279 5.92621 38.0964 6.10378C36.0872 8.06117 34.0834 10.0246 32.0873 11.9942C31.902 12.1765 31.8031 12.1569 31.6185 11.9956C28.8881 9.60172 25.6633 8.52476 22.0424 8.85754C16.1549 9.39772 12.2498 12.5669 10.0773 17.8887C10.0476 17.9613 10.011 18.0311 9.97778 18.1022C9.35204 17.6271 8.72562 17.152 8.09988 16.6769C6.7122 15.6223 5.33074 14.5596 3.93338 13.5185C3.45008 13.1586 3.01103 12.7404 2.47656 12.4497Z" fill="#D32B1D"/>
<path d="M38.16 39.5575C37.1547 40.5131 36.027 41.3095 34.8246 42.0056C31.9808 43.6505 28.8957 44.5492 25.6204 44.8691C22.1937 45.2046 18.8341 44.9118 15.5748 43.7996C10.2121 41.9683 6.07951 38.6459 3.17071 33.8643C2.91281 33.44 2.63624 33.0238 2.47168 32.5508C2.5422 32.5128 2.61895 32.4837 2.68118 32.4369C3.67337 31.6907 4.66556 30.9445 5.65359 30.1928C7.09521 29.0962 8.53405 27.9948 9.97359 26.8955C10.4168 28.0355 10.9264 29.1443 11.6358 30.1535C13.9859 33.4969 17.1782 35.5777 21.306 36.0867C24.6303 36.4967 27.797 35.9159 30.6761 34.1381C30.7632 34.0839 30.8579 34.0412 30.9485 33.9924C31.2797 34.4092 31.7547 34.6518 32.1696 34.9677C34.1698 36.494 36.1639 38.0271 38.16 39.5575Z" fill="#4DA349"/>
<path d="M38.1609 39.5579C36.1648 38.0275 34.17 36.4944 32.1705 34.9687C31.7556 34.6522 31.2806 34.4102 30.9494 33.9934C31.7508 33.3841 32.5265 32.7504 33.173 31.975C34.2938 30.6297 35.0309 29.1094 35.4084 27.413C35.4775 27.1026 35.3745 27.049 35.0931 27.0511C33.7109 27.0599 32.3288 27.0545 30.9466 27.0545C28.4126 27.0545 25.8785 27.0497 23.3445 27.0612C23.0486 27.0626 22.9518 26.9982 22.9531 26.6912C22.9656 24.0045 22.9649 21.3172 22.9531 18.6305C22.9518 18.3364 23.052 18.2808 23.3272 18.2808C30.2843 18.2876 37.2413 18.291 44.1984 18.2754C44.6015 18.2747 44.6077 18.4923 44.6485 18.743C45.0509 21.2318 45.1138 23.726 44.8075 26.2303C44.4688 29.0017 43.7013 31.6436 42.391 34.1283C41.3456 36.1114 40.0008 37.8743 38.3469 39.4094C38.2895 39.4636 38.2232 39.5084 38.1609 39.5579Z" fill="#4B7BEF"/>
<path d="M9.97447 26.8951C8.53494 27.9944 7.09609 29.0958 5.65448 30.1924C4.66644 30.944 3.67425 31.6903 2.68207 32.4365C2.61915 32.4839 2.5424 32.5131 2.47257 32.5503C1.98442 31.8041 1.68642 30.9725 1.38012 30.149C0.145245 26.8287 -0.257161 23.4053 0.157691 19.8985C0.457076 17.3711 1.17339 14.9542 2.32253 12.6668C2.36263 12.5868 2.38337 12.4946 2.47533 12.4492C3.01049 12.74 3.44885 13.1588 3.93146 13.5181C5.32951 14.5598 6.71028 15.6225 8.09796 16.6764C8.72369 17.1515 9.35012 17.6267 9.97586 18.1018C9.70689 19.0791 9.43931 20.0551 9.33422 21.067C9.1427 22.9152 9.31555 24.7262 9.87353 26.5027C9.91432 26.6314 9.94129 26.7643 9.97447 26.8951Z" fill="#E7B101"/>
</svg>
