<svg width="104" height="104" viewBox="0 0 104 104" fill="none" xmlns="http://www.w3.org/2000/svg">
<circle cx="52" cy="52" r="52" fill="#EEEEEE"/>
<circle cx="53" cy="51" r="44" fill="#E0E0E0"/>
<path d="M69.7981 39.7508C67.3954 39.7047 65.4287 41.7223 65.4287 44.1318V53.5H64.5715V34.5712C64.5715 32.1617 62.6048 30.1441 60.2021 30.1902C57.8738 30.2349 56.0001 32.1412 56.0001 34.4863V53.5H55.1429V30.3818C55.1429 27.9723 53.1762 25.9547 50.7735 26.0008C48.4452 26.0455 46.5715 27.9518 46.5715 30.2969V53.5H45.7143V34.6786C45.7143 32.2692 43.7476 30.2516 41.3449 30.2976C39.0166 30.3423 37.1429 32.2486 37.1429 34.5938V59.9445L33.752 55.2696C32.3599 53.3504 29.6796 52.926 27.7652 54.3218C25.8511 55.7176 25.4279 58.4049 26.82 60.3242L40.2772 78.8765C40.7544 79.5342 41.3799 80.0695 42.1027 80.4385C42.8256 80.8076 43.6253 81 44.4364 81H65.6068C67.9933 81 70.0663 79.3539 70.613 77.0247L73.4531 64.9226C73.8165 63.3744 74 61.7892 74 60.1987V44.0469C74.0001 41.7018 72.1264 39.7955 69.7981 39.7508Z" fill="white"/>
</svg>
