<svg width="104" height="104" viewBox="0 0 104 104" fill="none" xmlns="http://www.w3.org/2000/svg">
<circle cx="52" cy="52" r="52" fill="#3F51B2" fill-opacity="0.4"/>
<circle cx="53" cy="51" r="44" fill="#3F51B2"/>
<path d="M78.6336 47.1514L76.8656 45.3835C76.3773 44.8952 75.5859 44.8952 75.0976 45.3835L74.214 46.2671L71.9562 44.0093C72.3961 42.3444 71.9843 40.5015 70.6789 39.196L67.1437 35.6609C62.2624 30.7797 54.3475 30.7797 49.4655 35.6609L56.5366 39.196V40.6609C56.5366 41.9866 57.0632 43.2585 58.0014 44.196L61.8405 48.035C63.146 49.3405 64.989 49.7522 66.6538 49.3124L68.9117 51.5702L68.0281 52.4537C67.5398 52.942 67.5398 53.7334 68.0281 54.2217L69.796 55.9897C70.2843 56.4779 71.0757 56.4779 71.564 55.9897L78.6352 48.9186C79.1219 48.4311 79.1219 47.6397 78.6336 47.1514ZM56.2335 45.964C55.9444 45.6749 55.6991 45.3554 55.4639 45.0304L35.5341 63.6372C33.5365 65.5029 33.4826 68.652 35.4146 70.5848C37.3466 72.5176 40.4967 72.4637 42.3623 70.4653L60.9663 50.5381C60.6569 50.3108 60.3491 50.0795 60.0725 49.803L56.2335 45.964Z" fill="white"/>
</svg>
