<svg width="104" height="104" viewBox="0 0 104 104" fill="none" xmlns="http://www.w3.org/2000/svg">
<circle cx="52" cy="52" r="52" fill="#E0E0E0" fill-opacity="0.55"/>
<circle cx="53" cy="51" r="44" fill="#E0E0E0"/>
<path d="M69.075 65H35.925C35.2238 65 34.65 65.5625 34.65 66.25V68.75C34.65 69.4375 35.2238 70 35.925 70H69.075C69.7762 70 70.35 69.4375 70.35 68.75V66.25C70.35 65.5625 69.7762 65 69.075 65ZM74.175 40C72.0633 40 70.35 41.6797 70.35 43.75C70.35 44.3047 70.4775 44.8203 70.7006 45.2969L64.9312 48.6875C63.7041 49.4062 62.1183 49 61.4091 47.7812L54.9145 36.6406C55.7672 35.9531 56.325 34.9219 56.325 33.75C56.325 31.6797 54.6117 30 52.5 30C50.3883 30 48.675 31.6797 48.675 33.75C48.675 34.9219 49.2328 35.9531 50.0855 36.6406L43.5909 47.7812C42.8817 49 41.288 49.4062 40.0687 48.6875L34.3073 45.2969C34.5225 44.8281 34.658 44.3047 34.658 43.75C34.658 41.6797 32.9447 40 30.833 40C28.7212 40 27 41.6797 27 43.75C27 45.8203 28.7133 47.5 30.825 47.5C31.0322 47.5 31.2394 47.4688 31.4386 47.4375L37.2 62.5H67.8L73.5614 47.4375C73.7606 47.4688 73.9678 47.5 74.175 47.5C76.2867 47.5 78 45.8203 78 43.75C78 41.6797 76.2867 40 74.175 40Z" fill="white"/>
</svg>
