<svg width="104" height="104" viewBox="0 0 104 104" fill="none" xmlns="http://www.w3.org/2000/svg">
<circle cx="52" cy="52" r="52" fill="#EEEEEE"/>
<circle cx="53" cy="51" r="44" fill="#E0E0E0"/>
<path d="M75.7314 26C69.6706 31.194 63.8264 32.7093 63.8264 32.7093L42.2536 54.2837L39.1042 51.1373L36.7452 53.4963L40.7583 57.5108L30.547 67.719C29.8177 68.4499 29.8177 69.6325 30.547 70.3604L35.6389 75.4522C36.3683 76.1816 37.5509 76.1816 38.2802 75.4522L48.4899 65.2426L52.8738 69.6249L55.2344 67.2659L51.7752 63.8067C54.9826 60.5979 62.6516 52.9303 66.857 48.7249C72.2677 43.3142 78.1118 37.9034 75.7314 26ZM65.7491 46.6848L65.2822 47.1517L50.3011 62.1344L47.2431 59.0796L64.4337 41.8905L63.6463 41.1047L46.4557 58.2922L43.9243 55.7592L65.0014 34.6808C66.3946 34.2397 69.9514 32.9382 74.0194 30.1245C74.4085 38.0468 70.1863 42.2582 65.7491 46.6848Z" fill="white"/>
</svg>
