<svg width="104" height="104" viewBox="0 0 104 104" fill="none" xmlns="http://www.w3.org/2000/svg">
<circle cx="52" cy="52" r="52" fill="#9D28AC" fill-opacity="0.28"/>
<circle cx="53" cy="51" r="44" fill="#9D28AC"/>
<path d="M46.8405 62.0388C46.139 61.3429 46.5047 61.5391 44.8126 61.0899C44.0449 60.8857 43.37 60.4933 42.7597 60.0233L39.097 68.931C38.7426 69.7934 39.4046 70.7303 40.3427 70.6951L44.5962 70.5341L47.5218 73.5994C48.1677 74.2753 49.3011 74.0647 49.6555 73.2023L53.8574 62.9829C52.9823 63.4666 52.0111 63.75 51.0069 63.75C49.4327 63.75 47.9537 63.1423 46.8405 62.0388ZM69.903 68.931L66.2403 60.0233C65.63 60.4941 64.9551 60.8857 64.1874 61.0899C62.4865 61.5415 62.8594 61.3445 62.1595 62.0388C61.0463 63.1423 59.5665 63.75 57.9923 63.75C56.988 63.75 56.0169 63.4658 55.1418 62.9829L59.3437 73.2023C59.6981 74.0647 60.8323 74.2753 61.4774 73.5994L64.4038 70.5341L68.6573 70.6951C69.5954 70.7303 70.2574 69.7926 69.903 68.931ZM60.2317 60.2267C61.4652 58.9815 61.6065 59.0888 63.3632 58.6139C64.4845 58.3104 65.3612 57.4256 65.6615 56.2933C66.2654 54.0191 66.1087 54.2938 67.7564 52.6298C68.5774 51.801 68.8979 50.5927 68.5976 49.4604C67.9946 47.1878 67.9937 47.5049 68.5976 45.2299C68.8979 44.0977 68.5774 42.8893 67.7564 42.0605C66.1087 40.3965 66.2654 40.6704 65.6615 38.397C65.3612 37.2647 64.4845 36.3799 63.3632 36.0764C61.1125 35.467 61.3837 35.6264 59.7344 33.9616C58.9134 33.1328 57.7162 32.8085 56.5949 33.112C54.345 33.7205 54.659 33.7213 52.4051 33.112C51.2838 32.8085 50.0866 33.132 49.2656 33.9616C47.6179 35.6256 47.8892 35.467 45.6376 36.0764C44.5163 36.3799 43.6396 37.2647 43.3393 38.397C42.7363 40.6704 42.8921 40.3965 41.2444 42.0605C40.4234 42.8893 40.1021 44.0977 40.4032 45.2299C41.0063 47.5009 41.0071 47.1838 40.4032 49.4596C40.1029 50.5919 40.4234 51.8002 41.2444 52.6298C42.8921 54.2938 42.7355 54.0191 43.3393 56.2933C43.6396 57.4256 44.5163 58.3104 45.6376 58.6139C47.4443 59.1024 47.5792 59.0255 48.7683 60.2267C49.8363 61.3053 51.5001 61.4983 52.7837 60.6927C53.297 60.3695 53.8924 60.1978 54.5004 60.1978C55.1084 60.1978 55.7038 60.3695 56.2171 60.6927C57.4999 61.4983 59.1637 61.3053 60.2317 60.2267ZM46.8841 47.0909C46.8841 42.8445 50.2941 39.402 54.5 39.402C58.7059 39.402 62.1159 42.8445 62.1159 47.0909C62.1159 51.3374 58.7059 54.7799 54.5 54.7799C50.2941 54.7799 46.8841 51.3374 46.8841 47.0909Z" fill="white"/>
</svg>
