<svg width="104" height="104" viewBox="0 0 104 104" fill="none" xmlns="http://www.w3.org/2000/svg">
<circle cx="52" cy="52" r="52" fill="#EEEEEE"/>
<circle cx="53" cy="51" r="44" fill="#E0E0E0"/>
<path d="M75.487 42.4798C71.3323 41.5017 65.2246 41.8621 62.4608 48.1878C61.3922 50.6314 60.6593 52.4257 59.4369 51.8547C58.3478 51.3459 58.1334 49.8978 60.3346 46.8832C65.3058 40.0724 60.0903 29.7597 53.0022 27.8037C45.9142 29.7597 40.6987 40.0725 45.6699 46.8832C47.8702 49.8978 47.6559 51.3459 46.5668 51.8547C45.3444 52.4257 44.6115 50.6313 43.5437 48.1878C40.779 41.8621 34.6715 41.5017 30.5167 42.4798C26.6071 49.3291 30.1913 61.15 42.2489 65.7169C40.4545 66.5323 39.1337 68.9782 39.1337 68.9782C39.1337 68.9782 44.539 72.9022 51.8863 70.9446L51.4797 74.1966H53.1094H54.7383L54.3396 71.0014C61.5435 72.8218 66.8702 68.9782 66.8702 68.9782C66.8702 68.9782 65.7101 66.2058 63.7548 65.7169C75.8125 61.15 79.3966 49.3291 75.487 42.4798Z" fill="white"/>
</svg>
