<svg width="45" height="45" viewBox="0 0 45 45" fill="none" xmlns="http://www.w3.org/2000/svg">
<g clip-path="url(#clip0_188_11913)">
<path d="M42.6 8.37012H2.4C1.07452 8.37012 0 9.44463 0 10.7701V34.2301C0 35.5556 1.07452 36.6301 2.4 36.6301H42.6C43.9255 36.6301 45 35.5556 45 34.2301V10.7701C45 9.44463 43.9255 8.37012 42.6 8.37012Z" fill="black"/>
<path d="M13.2678 33.6708V32.1798C13.2678 31.608 12.9198 31.2354 12.3486 31.2354C12.0486 31.2354 11.7276 31.335 11.5038 31.6554C11.3298 31.3818 11.0838 31.2354 10.7088 31.2354C10.4256 31.2232 10.1552 31.3539 9.9888 31.5834V31.2834H9.5166V33.669H9.9888V32.304C9.9888 31.884 10.2372 31.683 10.5852 31.683C10.9332 31.683 11.1318 31.9068 11.1318 32.304V33.6708H11.604V32.304C11.604 31.884 11.8524 31.683 12.2004 31.683C12.5484 31.683 12.747 31.9068 12.747 32.304V33.6708H13.2678ZM21.021 31.3098H20.151V30.5898H19.68V31.3098H19.1832V31.7298H19.68V32.8506C19.68 33.3972 19.8786 33.7206 20.475 33.7206C20.7009 33.7159 20.9223 33.6562 21.12 33.5466L20.9706 33.1266C20.8365 33.2104 20.6811 33.2536 20.523 33.2508C20.2746 33.2508 20.1504 33.1014 20.1504 32.853V31.7106H21.0204V31.3128L21.021 31.3098ZM25.4442 31.2354C25.1826 31.2296 24.9371 31.3618 24.798 31.5834V31.2834H24.3258V33.669H24.798V32.3292C24.798 31.9314 24.9966 31.683 25.32 31.683C25.4291 31.6874 25.5374 31.7042 25.6428 31.7328L25.7922 31.2852C25.6783 31.2565 25.5616 31.2398 25.4442 31.2354ZM18.7596 31.4838C18.5112 31.3098 18.1632 31.2354 17.7906 31.2354C17.1942 31.2354 16.8216 31.509 16.8216 31.9812C16.8216 32.379 17.0952 32.6022 17.6166 32.6772L17.865 32.7018C18.1386 32.7516 18.3126 32.8512 18.3126 32.9754C18.3126 33.1494 18.114 33.2754 17.7408 33.2754C17.4558 33.2813 17.1767 33.1941 16.9458 33.027L16.6974 33.3996C17.0454 33.648 17.4678 33.6996 17.7174 33.6996C18.4134 33.6996 18.786 33.3768 18.786 32.9292C18.786 32.5092 18.486 32.3082 17.9658 32.2332L17.7174 32.2086C17.4936 32.184 17.2974 32.109 17.2974 31.9602C17.2974 31.7862 17.496 31.6602 17.7696 31.6602C18.0696 31.6602 18.366 31.7844 18.5154 31.8588L18.7596 31.4838ZM25.9662 32.478C25.9662 33.198 26.4384 33.7206 27.2088 33.7206C27.5568 33.7206 27.8052 33.6462 28.0536 33.447L27.8052 33.0744C27.6293 33.2169 27.4105 33.2957 27.1842 33.2982C26.7642 33.2982 26.4384 32.9754 26.4384 32.5032C26.4384 32.031 26.76 31.7106 27.1842 31.7106C27.4105 31.7131 27.6293 31.792 27.8052 31.9344L28.0536 31.5618C27.8052 31.3632 27.5568 31.2882 27.2088 31.2882C26.463 31.2384 25.9662 31.7604 25.9662 32.481V32.478ZM22.6362 31.2354C21.9402 31.2354 21.468 31.7322 21.468 32.478C21.468 33.2238 21.9648 33.7206 22.6854 33.7206C23.036 33.728 23.3783 33.614 23.6544 33.3978L23.406 33.0498C23.2063 33.2045 22.9625 33.2916 22.71 33.2982C22.3872 33.2982 22.0392 33.0996 21.99 32.6772H23.7546V32.4786C23.7546 31.7328 23.307 31.236 22.6362 31.236V31.2354ZM22.6116 31.683C22.9596 31.683 23.208 31.9068 23.2326 32.2794H21.9408C22.0152 31.9314 22.2408 31.683 22.6116 31.683ZM16.1754 32.478V31.2852H15.7032V31.5852C15.5292 31.3614 15.2832 31.2372 14.9328 31.2372C14.262 31.2372 13.7646 31.7592 13.7646 32.4798C13.7646 33.2004 14.2614 33.7224 14.9328 33.7224C15.2808 33.7224 15.5292 33.5982 15.7032 33.3744V33.6744H16.1754V32.478ZM14.262 32.478C14.262 32.0304 14.5356 31.683 15.0078 31.683C15.4554 31.683 15.7278 32.031 15.7278 32.478C15.7278 32.9502 15.4278 33.273 15.0078 33.273C14.5356 33.2976 14.262 32.925 14.262 32.478ZM32.6268 31.2354C32.3652 31.2296 32.1197 31.3618 31.9806 31.5834V31.2834H31.5084V33.669H31.98V32.3292C31.98 31.9314 32.1786 31.683 32.502 31.683C32.6111 31.6874 32.7194 31.7042 32.8248 31.7328L32.9742 31.2852C32.8603 31.2565 32.7436 31.2398 32.6262 31.2354H32.6268ZM30.7878 32.478V31.2852H30.3156V31.5852C30.1416 31.3614 29.8956 31.2372 29.5452 31.2372C28.8744 31.2372 28.377 31.7592 28.377 32.4798C28.377 33.2004 28.8738 33.7224 29.5452 33.7224C29.8932 33.7224 30.1416 33.5982 30.3156 33.3744V33.6744H30.7878V32.478ZM28.8744 32.478C28.8744 32.0304 29.148 31.683 29.6202 31.683C30.0678 31.683 30.3402 32.031 30.3402 32.478C30.3402 32.9502 30.0402 33.273 29.6202 33.273C29.148 33.2976 28.8744 32.925 28.8744 32.478ZM35.5842 32.478V30.3408H35.112V31.5834C34.938 31.3596 34.692 31.2354 34.3416 31.2354C33.6708 31.2354 33.1734 31.7574 33.1734 32.478C33.1734 33.1986 33.6702 33.7206 34.3416 33.7206C34.6896 33.7206 34.938 33.5964 35.112 33.3726V33.6726H35.5842V32.478ZM33.6708 32.478C33.6708 32.0304 33.9444 31.683 34.4166 31.683C34.8642 31.683 35.1366 32.031 35.1366 32.478C35.1366 32.9502 34.8366 33.273 34.4166 33.273C33.9438 33.2982 33.6702 32.9256 33.6702 32.478H33.6708Z" fill="white"/>
<path d="M26.8361 13.1934H18.2129V27.2586H26.8361V13.1934Z" fill="#FF5F00"/>
<path d="M19.0831 20.2264C19.0837 17.4852 20.3378 14.8947 22.4875 13.1938C18.8199 10.3101 13.5519 10.7293 10.3863 14.1567C7.22083 17.5841 7.22083 22.8687 10.3863 26.2961C13.5519 29.7235 18.8199 30.1427 22.4875 27.259C20.3378 25.5582 19.0837 22.9677 19.0831 20.2264Z" fill="#EB001B"/>
<path d="M36.9756 20.2268C36.9781 23.6496 35.0254 26.7731 31.9474 28.2701C28.8693 29.7671 25.2066 29.3746 22.5156 27.2594C24.6659 25.5589 25.9201 22.9682 25.9201 20.2268C25.9201 17.4853 24.6659 14.8946 22.5156 13.1942C25.2066 11.0789 28.8693 10.6864 31.9474 12.1834C35.0254 13.6804 36.9781 16.804 36.9756 20.2268Z" fill="#F79E1B"/>
</g>
<defs>
<clipPath id="clip0_188_11913">
<rect width="45" height="45" fill="white"/>
</clipPath>
</defs>
</svg>
