<svg width="45" height="45" viewBox="0 0 45 45" fill="none" xmlns="http://www.w3.org/2000/svg">
<g clip-path="url(#clip0_188_11897)">
<path d="M38.25 0H6.75C3.02208 0 0 3.02208 0 6.75V38.25C0 41.9779 3.02208 45 6.75 45H38.25C41.9779 45 45 41.9779 45 38.25V6.75C45 3.02208 41.9779 0 38.25 0Z" fill="white"/>
<path d="M33.1347 16.2422L15.8817 35.0684H9.5536C9.11414 35.0684 8.76258 34.6289 8.85047 34.1895L13.0692 7.4707C13.1571 6.85547 13.6845 6.41602 14.2997 6.41602H25.0223C32.4052 6.67969 34.4266 10.459 33.1083 16.2598L33.1347 16.2422Z" fill="#002C8A"/>
<path d="M33.4159 14.502C36.0526 15.9082 36.6679 18.5449 35.7889 22.0605C34.6464 27.2461 31.2186 29.4434 26.2089 29.5312L24.8026 29.6191C24.2753 29.6191 23.9237 29.9707 23.8358 30.498L22.6932 37.4414C22.6054 38.0566 22.078 38.4961 21.4628 38.4961H16.1893C15.7499 38.4961 15.3983 38.0566 15.4862 37.6172L17.4198 25.0488C17.5077 24.6094 33.4159 14.502 33.4159 14.502Z" fill="#009BE1"/>
<path d="M17.3145 25.6641L19.0723 14.502C19.1299 14.2376 19.2731 13.9996 19.4797 13.8249C19.6862 13.6501 19.9446 13.5483 20.2148 13.5352H28.6523C30.6738 13.5352 32.168 13.8867 33.3984 14.502C32.959 18.3691 31.1133 24.6094 22.1484 24.7852H18.2812C17.8418 24.7852 17.4023 25.1367 17.3145 25.6641Z" fill="#001F6B"/>
</g>
<defs>
<clipPath id="clip0_188_11897">
<rect width="45" height="45" fill="white"/>
</clipPath>
</defs>
</svg>
