<svg width="104" height="104" viewBox="0 0 104 104" fill="none" xmlns="http://www.w3.org/2000/svg">
<circle cx="52" cy="52" r="52" fill="#F54336" fill-opacity="0.37"/>
<circle cx="53" cy="51" r="44" fill="#F54336"/>
<path d="M69.6802 37.2197C68.6587 36.1978 67.4459 35.387 66.1109 34.8339C64.776 34.2808 63.3452 33.9961 61.9002 33.9961C60.4553 33.9961 59.0244 34.2808 57.6895 34.8339C56.3546 35.387 55.1418 36.1978 54.1202 37.2197L52.0002 39.3397L49.8802 37.2197C47.8169 35.1564 45.0183 33.9972 42.1002 33.9972C39.1822 33.9972 36.3836 35.1564 34.3202 37.2197C32.2569 39.2831 31.0977 42.0817 31.0977 44.9997C31.0977 47.9178 32.2569 50.7164 34.3202 52.7797L52.0002 70.4597L69.6802 52.7797C70.7022 51.7582 71.5129 50.5454 72.0661 49.2105C72.6192 47.8755 72.9039 46.4447 72.9039 44.9997C72.9039 43.5548 72.6192 42.124 72.0661 40.789C71.5129 39.4541 70.7022 38.2413 69.6802 37.2197Z" fill="white"/>
</svg>
