<svg width="104" height="104" viewBox="0 0 104 104" fill="none" xmlns="http://www.w3.org/2000/svg">
<circle cx="52" cy="52" r="52" fill="#EEEEEE"/>
<circle cx="53" cy="51" r="44" fill="#E0E0E0"/>
<path d="M73.456 65.5826L65.6664 57.7943C65.3148 57.4427 64.8382 57.2474 64.3382 57.2474H63.0646C65.221 54.4899 66.5024 51.0215 66.5024 47.2484C66.5024 38.2727 59.2284 31 50.2512 31C41.274 31 34 38.2727 34 47.2484C34 56.2241 41.274 63.4968 50.2512 63.4968C54.0249 63.4968 57.4939 62.2157 60.2519 60.0597V61.333C60.2519 61.8329 60.4472 62.3094 60.7988 62.661L68.5885 70.4493C69.3229 71.1836 70.5105 71.1836 71.2371 70.4493L73.4482 68.2386C74.1826 67.5042 74.1826 66.3169 73.456 65.5826ZM50.2512 57.2474C44.7273 57.2474 40.2505 52.7791 40.2505 47.2484C40.2505 41.7255 44.7195 37.2494 50.2512 37.2494C55.775 37.2494 60.2519 41.7177 60.2519 47.2484C60.2519 52.7713 55.7828 57.2474 50.2512 57.2474Z" fill="white"/>
</svg>
