<svg width="33" height="33" viewBox="0 0 33 33" fill="none" xmlns="http://www.w3.org/2000/svg">
<path d="M16.5 0C7.39506 0 0 7.39506 0 16.5C0 25.6049 7.39717 33 16.5 33C25.6049 33 33.0021 25.6028 33 16.5C33 7.39506 25.6028 0 16.5 0ZM10.8359 13.8845C11.8013 13.8845 12.5831 14.6663 12.5851 15.6337C12.5851 16.0978 12.3995 16.5434 12.0715 16.8714C11.7435 17.1994 11.298 17.383 10.8359 17.383C10.3718 17.383 9.92622 17.1994 9.59823 16.8714C9.27026 16.5434 9.08667 16.0979 9.08667 15.6337C9.08667 14.6663 9.86848 13.8845 10.8359 13.8845ZM22.1666 13.8845C23.132 13.8845 23.9138 14.6663 23.9159 15.6337C23.9159 16.0978 23.7302 16.5434 23.4022 16.8714C23.0743 17.1994 22.6287 17.383 22.1667 17.383C21.7025 17.383 21.257 17.1994 20.929 16.8714C20.601 16.5434 20.4174 16.0979 20.4174 15.6337C20.4174 14.6663 21.1992 13.8845 22.1666 13.8845ZM23 22.8141C23.2537 22.7955 23.5012 22.8987 23.6662 23.0926C23.9468 23.4247 23.9076 23.9239 23.5755 24.2065C21.6035 25.8897 19.0931 26.8138 16.5004 26.8138C13.9096 26.8138 11.4013 25.8918 9.42909 24.2085V24.2106C9.26819 24.0745 9.16918 23.8806 9.15268 23.6702C9.13617 23.4598 9.20218 23.2535 9.33832 23.0926C9.47653 22.9337 9.67043 22.8347 9.88081 22.8182C10.0891 22.8038 10.2954 22.8698 10.4542 23.0059C12.1395 24.4437 14.2848 25.2316 16.5001 25.2316C18.7175 25.2316 20.8587 24.4416 22.5459 23.0018C22.6738 22.8924 22.8329 22.8285 23 22.8141Z" fill="#F48A88"/>
</svg>
