<svg width="104" height="104" viewBox="0 0 104 104" fill="none" xmlns="http://www.w3.org/2000/svg">
<circle cx="52" cy="52" r="52" fill="#EEEEEE"/>
<circle cx="53" cy="51" r="44" fill="#E0E0E0"/>
<path d="M52.5014 40.4375C46.4052 40.4375 41.4384 45.4041 41.4384 51.5C41.4384 57.5959 46.4052 62.5625 52.5014 62.5625C58.5976 62.5625 63.5645 57.5959 63.5645 51.5C63.5645 45.4041 58.5976 40.4375 52.5014 40.4375ZM80.8966 49.7139L69.9833 44.2633L73.8439 32.6938C74.3625 31.1266 72.8759 29.64 71.3201 30.1701L59.75 34.0305L54.2876 23.1063C53.5501 21.6313 51.4527 21.6313 50.7152 23.1063L45.2644 34.0189L33.6827 30.1586C32.1155 29.64 30.6289 31.1266 31.159 32.6822L35.0195 44.2518L24.1063 49.7139C22.6312 50.4514 22.6312 52.5486 24.1063 53.2861L35.0195 58.7367L31.159 70.3178C30.6404 71.885 32.127 73.3715 33.6827 72.8414L45.2528 68.9811L50.7037 79.8937C51.4412 81.3687 53.5386 81.3687 54.2761 79.8937L59.727 68.9811L71.2971 72.8414C72.8643 73.36 74.3509 71.8734 73.8208 70.3178L69.9603 58.7482L80.8735 53.2977C82.3716 52.5486 82.3716 50.4514 80.8966 49.7139ZM62.9306 61.9287C57.1802 67.6789 47.8227 67.6789 42.0722 61.9287C36.3217 56.1785 36.3217 46.8215 42.0722 41.0713C47.8227 35.3211 57.1802 35.3211 62.9306 41.0713C68.6811 46.8215 68.6811 56.1785 62.9306 61.9287Z" fill="white"/>
</svg>
