<svg width="52" height="40" viewBox="0 0 52 40" fill="none" xmlns="http://www.w3.org/2000/svg">
<g clip-path="url(#clip0_188_11923)">
<path d="M49.2267 0H2.77333C1.24166 0 0 1.5209 0 3.39703V36.603C0 38.4791 1.24166 40 2.77333 40H49.2267C50.7583 40 52 38.4791 52 36.603V3.39703C52 1.5209 50.7583 0 49.2267 0Z" fill="#0E4595"/>
<path d="M19.2886 28.385L21.6016 11.7598H25.3012L22.9865 28.385H19.2886Z" fill="white"/>
<path d="M36.3519 12.1182C35.6189 11.7814 34.4705 11.4199 33.0362 11.4199C29.3807 11.4199 26.8056 13.6748 26.7837 16.9065C26.7631 19.2953 28.622 20.628 30.0253 21.4232C31.4653 22.2381 31.9495 22.7578 31.9426 23.4855C31.9335 24.5999 30.7927 25.109 29.7293 25.109C28.2485 25.109 27.4619 24.857 26.2469 24.2363L25.7702 23.972L25.251 27.6938C26.1151 28.1578 27.7129 28.56 29.372 28.5808C33.2608 28.5808 35.7854 26.3517 35.8141 22.9008C35.8281 21.0096 34.8424 19.5702 32.7081 18.3837C31.4149 17.6147 30.623 17.1015 30.6314 16.3227C30.6314 15.6316 31.3017 14.8927 32.75 14.8927C33.9598 14.8697 34.8361 15.1928 35.5189 15.5296L35.8504 15.7215L36.3519 12.1182Z" fill="white"/>
<path d="M45.8718 11.7598H43.0131C42.1275 11.7598 41.4648 12.0558 41.0759 13.1384L35.5815 28.3744H39.4664C39.4664 28.3744 40.1016 26.3258 40.2453 25.876C40.6698 25.876 44.4437 25.8832 44.9832 25.8832C45.0939 26.4652 45.4333 28.3744 45.4333 28.3744H48.8662L45.8718 11.7598ZM41.3362 22.495C41.6422 21.5371 42.8102 17.8476 42.8102 17.8476C42.7883 17.8918 43.1138 16.885 43.3007 16.2608L43.5508 17.6942C43.5508 17.6942 44.2592 21.6627 44.4072 22.4949H41.3362V22.495Z" fill="white"/>
<path d="M3.18105 11.7588L3.13379 12.1048C4.5961 12.5384 5.90221 13.1658 7.04571 13.9465L10.3283 28.3576L14.2426 28.352L20.0668 11.7588H16.148L12.526 23.096L12.1401 20.7921C12.1222 20.7218 12.1029 20.6512 12.0831 20.5806L10.8236 13.1624C10.5996 12.1096 9.95006 11.7955 9.14656 11.7588H3.18105Z" fill="white"/>
</g>
<defs>
<clipPath id="clip0_188_11923">
<rect width="52" height="40" fill="white"/>
</clipPath>
</defs>
</svg>
